# xmcd CD database file
#
# Track frame offsets:
#	182
#	15670
#	29780
#	42620
#	55322
#	68810
#	84290
#	95787
#	110405
#	121535
#	142155
#	156407
#	171512
#	185412
#	200715
#	217340
#
# Disc length: 3103 seconds
#
# Revision: 1
# Processed by: cddbd v1.5.2PL0 Copyright (c) Steve Scherf et al.
# Submitted via: CDex 1.70beta2
#
DISCID=f90c1d10
DTITLE=Claude Luter - Coktail Collection
DYEAR=1994
DGENRE=Jazz
TTITLE0=Jazzy lips
TTITLE1=Working Man Blues
TTITLE2=Steppin' On The Blues
TTITLE3=Rag De Dent
TTITLE4=Le Petit Cochon Stomp
TTITLE5=Frotti Frotta
TTITLE6=Black Bottom
TTITLE7=Riverboat Shuffle
TTITLE8=At The Jazz Band Ball
TTITLE9=King Joe
TTITLE10=Très Moutarde
TTITLE11=Lazy Blues
TTITLE12=Cannibal Dance
TTITLE13=Four Or Five Times
TTITLE14=Shreverport
TTITLE15=Au Bois De Mon Coeur
EXTD=YEAR: 1994
EXTT0=
EXTT1=
EXTT2=
EXTT3=
EXTT4=
EXTT5=
EXTT6=
EXTT7=
EXTT8=
EXTT9=
EXTT10=
EXTT11=
EXTT12=
EXTT13=
EXTT14=
EXTT15=
PLAYORDER=
